<svg xmlns="http://www.w3.org/2000/svg" xmlns:xlink="http://www.w3.org/1999/xlink" width="500" zoomAndPan="magnify" viewBox="0 0 375 374.999991" height="500" preserveAspectRatio="xMidYMid meet" version="1.0"><defs><clipPath id="d513bf9c3f"><path d="M 35.125 191 L 339.625 191 L 339.625 342.710938 L 35.125 342.710938 Z M 35.125 191 " clip-rule="nonzero"/></clipPath></defs><path fill="#000000" d="M 185.953125 194.277344 C 186.410156 194.734375 187.152344 194.734375 187.609375 194.277344 L 268.152344 113.597656 C 281.335938 97.898438 282.921875 76.011719 272.125 58.722656 C 255.40625 31.941406 216.902344 32.347656 193.664062 54.222656 L 186.78125 60.707031 L 179.898438 54.222656 C 156.660156 32.347656 118.15625 31.941406 101.433594 58.722656 C 90.640625 76.011719 92.226562 97.898438 105.410156 113.597656 Z M 185.953125 194.277344 " fill-opacity="1" fill-rule="nonzero"/><path fill="#000000" d="M 228.007812 255.449219 C 228.0625 255.066406 228.0625 254.738281 228.0625 254.40625 C 228.0625 248.03125 225.445312 242.207031 221.1875 238.03125 C 237.554688 227.152344 256.980469 213.195312 270.234375 200.171875 C 273.726562 196.765625 278.257812 195.117188 282.839844 195.117188 C 287.3125 195.117188 291.785156 196.707031 295.332031 199.839844 C 295.496094 200.003906 295.605469 200.171875 295.769531 200.335938 C 274.328125 219.511719 244.539062 242.757812 228.007812 255.449219 Z M 228.007812 255.449219 " fill-opacity="1" fill-rule="nonzero"/><g clip-path="url(#d513bf9c3f)"><path fill="#000000" d="M 339.523438 206.710938 C 339.742188 211.050781 338.269531 215.171875 335.324219 218.359375 L 328.339844 225.996094 C 306.296875 250.339844 272.964844 287.046875 234.011719 313.480469 C 226.972656 318.257812 218.570312 320.621094 210.058594 320.511719 C 193.910156 320.183594 162.648438 319.195312 134.933594 316.0625 C 119.386719 314.304688 103.238281 317.820312 89.597656 325.953125 L 61.5 342.710938 L 35.203125 280.34375 L 62.375 266.496094 C 66.628906 264.351562 70.613281 261.441406 74.265625 257.757812 C 82.722656 249.296875 106.019531 230.285156 139.460938 237.316406 C 146.828125 238.855469 153.484375 239.570312 159.757812 239.570312 L 204.984375 239.570312 C 213.222656 239.570312 219.878906 246.21875 219.878906 254.40625 C 219.878906 258.527344 218.1875 262.265625 215.460938 264.957031 C 215.40625 265.011719 215.296875 265.121094 215.1875 265.234375 C 212.570312 267.703125 208.96875 269.296875 204.984375 269.296875 L 153.046875 269.296875 C 150.8125 269.296875 148.957031 271.113281 148.957031 273.421875 C 148.957031 275.671875 150.8125 277.542969 153.046875 277.542969 L 204.984375 277.542969 C 211.152344 277.542969 216.714844 275.125 220.808594 271.167969 C 224.898438 268.144531 284.476562 223.46875 312.628906 195.9375 C 318.464844 190.226562 327.902344 190.058594 334.121094 195.609375 C 337.394531 198.46875 339.304688 202.421875 339.523438 206.710938 Z M 339.523438 206.710938 " fill-opacity="1" fill-rule="nonzero"/></g></svg>