<svg xmlns="http://www.w3.org/2000/svg" xmlns:xlink="http://www.w3.org/1999/xlink" width="500" zoomAndPan="magnify" viewBox="0 0 375 374.999991" height="500" preserveAspectRatio="xMidYMid meet" version="1.0"><defs><clipPath id="6f155bfc78"><path d="M 38 32.429688 L 329 32.429688 L 329 324 L 38 324 Z M 38 32.429688 " clip-rule="nonzero"/></clipPath></defs><g clip-path="url(#6f155bfc78)"><path fill="#231f20" d="M 183.222656 48.070312 C 185.34375 48.070312 187.464844 48.121094 189.582031 48.226562 C 191.699219 48.332031 193.816406 48.488281 195.925781 48.695312 C 198.039062 48.902344 200.140625 49.164062 202.238281 49.476562 C 204.339844 49.789062 206.425781 50.152344 208.507812 50.566406 C 210.589844 50.980469 212.65625 51.445312 214.714844 51.960938 C 216.773438 52.480469 218.816406 53.046875 220.847656 53.664062 C 222.875 54.28125 224.890625 54.945312 226.886719 55.664062 C 228.882812 56.378906 230.863281 57.144531 232.820312 57.957031 C 234.78125 58.769531 236.71875 59.632812 238.636719 60.539062 C 240.554688 61.449219 242.449219 62.402344 244.320312 63.40625 C 246.191406 64.40625 248.035156 65.457031 249.855469 66.546875 C 251.671875 67.640625 253.464844 68.777344 255.230469 69.957031 C 256.992188 71.140625 258.726562 72.363281 260.429688 73.628906 C 262.132812 74.894531 263.804688 76.203125 265.445312 77.550781 C 267.085938 78.898438 268.691406 80.289062 270.261719 81.714844 C 271.832031 83.144531 273.371094 84.609375 274.871094 86.113281 C 276.367188 87.613281 277.832031 89.152344 279.253906 90.730469 C 280.679688 92.304688 282.066406 93.914062 283.410156 95.554688 C 284.757812 97.199219 286.0625 98.875 287.324219 100.582031 C 288.589844 102.289062 289.808594 104.027344 290.988281 105.792969 C 292.167969 107.5625 293.300781 109.355469 294.390625 111.179688 C 295.480469 113.003906 296.527344 114.851562 297.527344 116.726562 C 298.527344 118.601562 299.480469 120.5 300.386719 122.421875 C 301.292969 124.34375 302.152344 126.285156 302.964844 128.25 C 303.777344 130.210938 304.539062 132.195312 305.253906 134.195312 C 305.96875 136.199219 306.632812 138.214844 307.25 140.25 C 307.867188 142.285156 308.429688 144.332031 308.945312 146.394531 C 309.460938 148.457031 309.925781 150.527344 310.339844 152.613281 C 310.753906 154.699219 311.117188 156.792969 311.425781 158.894531 C 311.738281 160.996094 312 163.105469 312.207031 165.222656 C 312.414062 167.335938 312.570312 169.457031 312.675781 171.578125 C 312.777344 173.703125 312.832031 175.828125 312.832031 177.953125 C 312.832031 180.078125 312.777344 182.203125 312.675781 184.324219 C 312.570312 186.449219 312.414062 188.566406 312.207031 190.683594 C 312 192.800781 311.738281 194.90625 311.425781 197.011719 C 311.117188 199.113281 310.753906 201.207031 310.339844 203.292969 C 309.925781 205.375 309.460938 207.449219 308.945312 209.511719 C 308.429688 211.574219 307.867188 213.621094 307.25 215.65625 C 306.632812 217.691406 305.96875 219.707031 305.253906 221.710938 C 304.539062 223.710938 303.777344 225.691406 302.964844 227.65625 C 302.152344 229.621094 301.292969 231.5625 300.386719 233.484375 C 299.480469 235.40625 298.527344 237.304688 297.527344 239.179688 C 296.527344 241.054688 295.480469 242.902344 294.390625 244.726562 C 293.300781 246.550781 292.167969 248.34375 290.988281 250.113281 C 289.808594 251.878906 288.589844 253.617188 287.324219 255.324219 C 286.0625 257.03125 284.757812 258.707031 283.410156 260.351562 C 282.066406 261.992188 280.679688 263.601562 279.253906 265.175781 C 277.832031 266.753906 276.367188 268.292969 274.871094 269.792969 C 273.371094 271.296875 271.832031 272.761719 270.261719 274.191406 C 268.691406 275.617188 267.085938 277.003906 265.445312 278.355469 C 263.804688 279.703125 262.132812 281.011719 260.429688 282.277344 C 258.726562 283.542969 256.992188 284.765625 255.230469 285.945312 C 253.464844 287.128906 251.671875 288.265625 249.855469 289.359375 C 248.035156 290.449219 246.191406 291.496094 244.320312 292.5 C 242.449219 293.5 240.554688 294.457031 238.636719 295.367188 C 236.71875 296.273438 234.78125 297.136719 232.820312 297.949219 C 230.863281 298.761719 228.882812 299.527344 226.886719 300.242188 C 224.890625 300.960938 222.875 301.625 220.847656 302.242188 C 218.816406 302.859375 216.773438 303.425781 214.714844 303.945312 C 212.65625 304.460938 210.589844 304.925781 208.507812 305.339844 C 206.425781 305.753906 204.339844 306.117188 202.238281 306.429688 C 200.140625 306.742188 198.039062 307.003906 195.925781 307.210938 C 193.816406 307.417969 191.699219 307.574219 189.582031 307.679688 C 187.464844 307.785156 185.34375 307.835938 183.222656 307.835938 C 181.101562 307.835938 178.980469 307.785156 176.863281 307.679688 C 174.746094 307.574219 172.628906 307.417969 170.519531 307.210938 C 168.40625 307.003906 166.304688 306.742188 164.203125 306.429688 C 162.105469 306.117188 160.019531 305.753906 157.9375 305.339844 C 155.855469 304.925781 153.789062 304.460938 151.730469 303.945312 C 149.671875 303.425781 147.628906 302.859375 145.597656 302.242188 C 143.570312 301.625 141.554688 300.960938 139.558594 300.242188 C 137.5625 299.527344 135.582031 298.761719 133.625 297.949219 C 131.664062 297.136719 129.726562 296.273438 127.808594 295.367188 C 125.890625 294.457031 123.996094 293.5 122.125 292.5 C 120.253906 291.496094 118.410156 290.449219 116.589844 289.359375 C 114.769531 288.265625 112.980469 287.128906 111.214844 285.945312 C 109.453125 284.765625 107.71875 283.542969 106.015625 282.277344 C 104.3125 281.011719 102.640625 279.703125 101 278.355469 C 99.359375 277.003906 97.753906 275.617188 96.183594 274.191406 C 94.613281 272.761719 93.074219 271.296875 91.574219 269.792969 C 90.074219 268.292969 88.613281 266.753906 87.1875 265.175781 C 85.765625 263.601562 84.378906 261.992188 83.035156 260.351562 C 81.6875 258.707031 80.382812 257.03125 79.121094 255.324219 C 77.855469 253.617188 76.636719 251.878906 75.457031 250.113281 C 74.277344 248.34375 73.144531 246.550781 72.054688 244.726562 C 70.964844 242.902344 69.917969 241.054688 68.917969 239.179688 C 67.917969 237.304688 66.964844 235.40625 66.058594 233.484375 C 65.152344 231.5625 64.292969 229.621094 63.480469 227.65625 C 62.667969 225.691406 61.90625 223.710938 61.191406 221.710938 C 60.476562 219.707031 59.8125 217.691406 59.195312 215.65625 C 58.578125 213.621094 58.015625 211.574219 57.5 209.511719 C 56.984375 207.449219 56.519531 205.375 56.105469 203.292969 C 55.691406 201.207031 55.328125 199.113281 55.015625 197.011719 C 54.707031 194.90625 54.445312 192.800781 54.238281 190.683594 C 54.03125 188.566406 53.875 186.449219 53.769531 184.324219 C 53.667969 182.203125 53.613281 180.078125 53.613281 177.953125 C 53.613281 175.828125 53.667969 173.703125 53.769531 171.578125 C 53.875 169.457031 54.03125 167.335938 54.238281 165.222656 C 54.445312 163.105469 54.707031 160.996094 55.015625 158.894531 C 55.328125 156.792969 55.691406 154.699219 56.105469 152.613281 C 56.519531 150.527344 56.984375 148.457031 57.5 146.394531 C 58.015625 144.332031 58.578125 142.285156 59.195312 140.25 C 59.8125 138.214844 60.476562 136.199219 61.191406 134.195312 C 61.90625 132.195312 62.667969 130.210938 63.480469 128.25 C 64.292969 126.285156 65.152344 124.34375 66.058594 122.421875 C 66.964844 120.5 67.917969 118.601562 68.917969 116.726562 C 69.917969 114.851562 70.964844 113.003906 72.054688 111.179688 C 73.144531 109.355469 74.277344 107.5625 75.457031 105.792969 C 76.636719 104.027344 77.855469 102.289062 79.121094 100.582031 C 80.382812 98.875 81.6875 97.199219 83.035156 95.554688 C 84.378906 93.914062 85.765625 92.304688 87.1875 90.730469 C 88.613281 89.152344 90.074219 87.613281 91.574219 86.113281 C 93.074219 84.609375 94.613281 83.144531 96.183594 81.714844 C 97.753906 80.289062 99.359375 78.898438 101 77.550781 C 102.640625 76.203125 104.3125 74.894531 106.015625 73.628906 C 107.71875 72.363281 109.453125 71.140625 111.214844 69.957031 C 112.980469 68.777344 114.769531 67.640625 116.589844 66.546875 C 118.410156 65.457031 120.253906 64.40625 122.125 63.40625 C 123.996094 62.402344 125.890625 61.449219 127.808594 60.539062 C 129.726562 59.632812 131.664062 58.769531 133.625 57.957031 C 135.582031 57.144531 137.5625 56.378906 139.558594 55.664062 C 141.554688 54.945312 143.570312 54.28125 145.597656 53.664062 C 147.628906 53.046875 149.671875 52.480469 151.730469 51.960938 C 153.789062 51.445312 155.855469 50.980469 157.9375 50.566406 C 160.019531 50.152344 162.105469 49.789062 164.203125 49.476562 C 166.304688 49.164062 168.40625 48.902344 170.519531 48.695312 C 172.628906 48.488281 174.746094 48.332031 176.863281 48.226562 C 178.980469 48.121094 181.101562 48.070312 183.222656 48.070312 M 183.222656 32.460938 C 181.148438 32.460938 179.078125 32.507812 177.003906 32.597656 C 174.933594 32.6875 172.867188 32.820312 170.800781 33 C 168.734375 33.175781 166.671875 33.398438 164.617188 33.664062 C 162.5625 33.933594 160.511719 34.242188 158.46875 34.597656 C 156.425781 34.953125 154.390625 35.351562 152.363281 35.792969 C 150.339844 36.234375 148.324219 36.71875 146.320312 37.25 C 144.3125 37.777344 142.320312 38.347656 140.339844 38.964844 C 138.359375 39.578125 136.390625 40.234375 134.441406 40.933594 C 132.488281 41.628906 130.550781 42.371094 128.628906 43.152344 C 126.707031 43.933594 124.804688 44.757812 122.917969 45.621094 C 121.03125 46.484375 119.167969 47.386719 117.320312 48.332031 C 115.472656 49.273438 113.644531 50.257812 111.839844 51.277344 C 110.035156 52.300781 108.253906 53.359375 106.492188 54.460938 C 104.734375 55.558594 102.996094 56.691406 101.285156 57.867188 C 99.574219 59.039062 97.890625 60.25 96.230469 61.492188 C 94.570312 62.738281 92.9375 64.019531 91.332031 65.335938 C 89.726562 66.648438 88.152344 68 86.605469 69.382812 C 85.054688 70.765625 83.539062 72.179688 82.050781 73.628906 C 80.566406 75.078125 79.109375 76.554688 77.6875 78.066406 C 76.261719 79.578125 74.871094 81.117188 73.515625 82.6875 C 72.15625 84.257812 70.832031 85.859375 69.542969 87.484375 C 68.253906 89.113281 67 90.765625 65.78125 92.445312 C 64.5625 94.128906 63.382812 95.835938 62.234375 97.566406 C 61.089844 99.296875 59.980469 101.054688 58.910156 102.832031 C 57.839844 104.613281 56.808594 106.414062 55.816406 108.238281 C 54.820312 110.058594 53.867188 111.90625 52.953125 113.769531 C 52.039062 115.632812 51.164062 117.515625 50.328125 119.417969 C 49.492188 121.320312 48.699219 123.238281 47.949219 125.175781 C 47.195312 127.113281 46.484375 129.0625 45.816406 131.03125 C 45.148438 132.996094 44.519531 134.976562 43.9375 136.972656 C 43.351562 138.964844 42.8125 140.96875 42.3125 142.984375 C 41.8125 145.003906 41.359375 147.03125 40.945312 149.066406 C 40.535156 151.101562 40.167969 153.148438 39.84375 155.199219 C 39.519531 157.25 39.238281 159.308594 39 161.375 C 38.765625 163.4375 38.570312 165.503906 38.421875 167.578125 C 38.273438 169.652344 38.171875 171.726562 38.113281 173.800781 C 38.050781 175.878906 38.039062 177.957031 38.066406 180.035156 C 38.097656 182.113281 38.167969 184.1875 38.289062 186.261719 C 38.40625 188.335938 38.566406 190.40625 38.773438 192.472656 C 38.980469 194.542969 39.230469 196.605469 39.527344 198.660156 C 39.820312 200.71875 40.160156 202.765625 40.542969 204.808594 C 40.925781 206.851562 41.351562 208.882812 41.820312 210.90625 C 42.289062 212.929688 42.800781 214.945312 43.355469 216.945312 C 43.910156 218.949219 44.507812 220.9375 45.148438 222.914062 C 45.789062 224.890625 46.472656 226.851562 47.195312 228.796875 C 47.921875 230.746094 48.6875 232.675781 49.492188 234.589844 C 50.300781 236.503906 51.144531 238.398438 52.035156 240.277344 C 52.921875 242.15625 53.847656 244.011719 54.816406 245.851562 C 55.785156 247.6875 56.789062 249.503906 57.835938 251.300781 C 58.878906 253.09375 59.960938 254.867188 61.082031 256.613281 C 62.203125 258.363281 63.359375 260.085938 64.554688 261.785156 C 65.746094 263.480469 66.976562 265.15625 68.242188 266.800781 C 69.507812 268.445312 70.808594 270.0625 72.144531 271.652344 C 73.480469 273.242188 74.847656 274.804688 76.25 276.335938 C 77.648438 277.867188 79.082031 279.367188 80.546875 280.835938 C 82.015625 282.304688 83.511719 283.742188 85.039062 285.148438 C 86.566406 286.554688 88.121094 287.925781 89.707031 289.265625 C 91.292969 290.605469 92.90625 291.910156 94.546875 293.175781 C 96.1875 294.445312 97.855469 295.679688 99.550781 296.878906 C 101.246094 298.074219 102.964844 299.238281 104.707031 300.359375 C 106.453125 301.484375 108.21875 302.570312 110.007812 303.617188 C 111.800781 304.667969 113.609375 305.675781 115.445312 306.648438 C 117.277344 307.617188 119.132812 308.546875 121.003906 309.4375 C 122.878906 310.328125 124.769531 311.179688 126.679688 311.988281 C 128.867188 312.917969 131.078125 313.789062 133.308594 314.605469 C 135.542969 315.425781 137.792969 316.1875 140.0625 316.894531 C 142.328125 317.605469 144.613281 318.253906 146.917969 318.851562 C 149.21875 319.445312 151.53125 319.984375 153.859375 320.464844 C 156.1875 320.945312 158.523438 321.371094 160.871094 321.734375 C 163.222656 322.101562 165.578125 322.410156 167.941406 322.660156 C 170.304688 322.910156 172.671875 323.105469 175.042969 323.238281 C 177.417969 323.371094 179.792969 323.445312 182.167969 323.464844 C 184.542969 323.480469 186.917969 323.4375 189.292969 323.339844 C 191.667969 323.238281 194.039062 323.082031 196.40625 322.863281 C 198.773438 322.648438 201.132812 322.375 203.484375 322.042969 C 205.839844 321.707031 208.183594 321.320312 210.515625 320.871094 C 212.851562 320.421875 215.171875 319.917969 217.480469 319.355469 C 219.789062 318.792969 222.085938 318.175781 224.363281 317.5 C 226.644531 316.824219 228.90625 316.09375 231.148438 315.308594 C 233.390625 314.519531 235.613281 313.679688 237.816406 312.785156 C 240.019531 311.890625 242.195312 310.941406 244.351562 309.9375 C 246.507812 308.933594 248.636719 307.878906 250.742188 306.769531 C 252.84375 305.664062 254.921875 304.503906 256.96875 303.296875 C 259.015625 302.085938 261.03125 300.828125 263.015625 299.515625 C 265 298.207031 266.953125 296.851562 268.871094 295.445312 C 270.792969 294.042969 272.675781 292.589844 274.523438 291.09375 C 276.371094 289.59375 278.179688 288.050781 279.953125 286.464844 C 281.726562 284.878906 283.457031 283.25 285.148438 281.578125 C 286.839844 279.90625 288.492188 278.195312 290.101562 276.441406 C 291.710938 274.6875 293.273438 272.894531 294.792969 271.066406 C 296.316406 269.234375 297.789062 267.367188 299.21875 265.464844 C 300.648438 263.5625 302.03125 261.628906 303.363281 259.65625 C 304.699219 257.6875 305.984375 255.683594 307.222656 253.648438 C 308.457031 251.617188 309.644531 249.550781 310.777344 247.460938 C 311.914062 245.367188 312.996094 243.25 314.027344 241.101562 C 315.058594 238.957031 316.039062 236.789062 316.964844 234.59375 C 317.886719 232.402344 318.757812 230.1875 319.574219 227.949219 C 320.390625 225.710938 321.152344 223.457031 321.859375 221.183594 C 322.566406 218.910156 323.214844 216.621094 323.808594 214.3125 C 324.402344 212.007812 324.941406 209.6875 325.421875 207.355469 C 325.902344 205.023438 326.324219 202.679688 326.691406 200.328125 C 327.054688 197.972656 327.363281 195.613281 327.613281 193.246094 C 327.863281 190.875 328.054688 188.503906 328.1875 186.125 C 328.320312 183.746094 328.394531 181.367188 328.414062 178.988281 C 328.429688 176.605469 328.390625 174.226562 328.289062 171.84375 C 328.191406 169.464844 328.03125 167.089844 327.816406 164.71875 C 327.601562 162.347656 327.324219 159.980469 326.992188 157.625 C 326.660156 155.265625 326.273438 152.917969 325.824219 150.578125 C 325.378906 148.238281 324.875 145.914062 324.3125 143.597656 C 323.753906 141.285156 323.136719 138.984375 322.460938 136.699219 C 321.789062 134.417969 321.058594 132.152344 320.273438 129.902344 C 319.488281 127.65625 318.652344 125.425781 317.757812 123.222656 C 316.863281 121.015625 315.917969 118.832031 314.914062 116.671875 C 313.914062 114.511719 312.863281 112.375 311.757812 110.269531 C 310.652344 108.160156 309.496094 106.078125 308.289062 104.027344 C 307.082031 101.976562 305.824219 99.957031 304.519531 97.96875 C 303.210938 95.976562 301.859375 94.019531 300.457031 92.097656 C 299.054688 90.175781 297.605469 88.289062 296.109375 86.4375 C 294.617188 84.585938 293.078125 82.769531 291.492188 80.996094 C 289.910156 79.21875 288.285156 77.484375 286.617188 75.785156 C 284.949219 74.089844 283.238281 72.4375 281.488281 70.824219 C 279.742188 69.210938 277.953125 67.644531 276.125 66.121094 C 274.300781 64.597656 272.4375 63.117188 270.539062 61.6875 C 268.640625 60.253906 266.707031 58.871094 264.742188 57.53125 C 262.773438 56.195312 260.777344 54.90625 258.746094 53.667969 C 256.71875 52.429688 254.660156 51.242188 252.570312 50.101562 C 250.484375 48.964844 248.367188 47.878906 246.226562 46.847656 C 244.085938 45.8125 241.921875 44.832031 239.734375 43.90625 C 230.792969 40.113281 221.566406 37.253906 212.054688 35.328125 C 202.539062 33.398438 192.929688 32.445312 183.222656 32.460938 Z M 183.222656 32.460938 " fill-opacity="1" fill-rule="nonzero"/></g><path fill="#231f20" d="M 234.277344 148.167969 L 195.746094 133.308594 C 194.007812 132.640625 192.210938 132.199219 190.359375 131.988281 C 188.507812 131.777344 186.660156 131.800781 184.8125 132.0625 C 182.96875 132.324219 181.183594 132.8125 179.460938 133.527344 C 177.738281 134.242188 176.132812 135.160156 174.644531 136.285156 L 139.339844 162.816406 C 139.015625 163.054688 138.765625 163.355469 138.582031 163.714844 C 138.402344 164.074219 138.3125 164.457031 138.316406 164.859375 C 138.316406 165.261719 138.402344 165.640625 138.582031 166 C 138.761719 166.359375 139.007812 166.660156 139.328125 166.902344 C 140.128906 167.496094 140.96875 168.027344 141.851562 168.488281 C 142.738281 168.949219 143.652344 169.335938 144.597656 169.652344 C 145.542969 169.964844 146.507812 170.203125 147.492188 170.359375 C 148.472656 170.519531 149.464844 170.597656 150.460938 170.597656 C 151.457031 170.597656 152.445312 170.519531 153.429688 170.359375 C 154.414062 170.203125 155.378906 169.964844 156.324219 169.652344 C 157.269531 169.335938 158.183594 168.949219 159.070312 168.488281 C 159.953125 168.027344 160.792969 167.496094 161.59375 166.902344 L 176.039062 156.035156 C 176.90625 155.386719 177.820312 154.8125 178.78125 154.3125 C 179.738281 153.8125 180.734375 153.390625 181.757812 153.050781 C 182.785156 152.707031 183.832031 152.453125 184.902344 152.277344 C 185.96875 152.105469 187.042969 152.019531 188.125 152.019531 C 189.207031 152.019531 190.28125 152.105469 191.351562 152.277344 C 192.417969 152.453125 193.464844 152.707031 194.492188 153.050781 C 195.519531 153.390625 196.511719 153.8125 197.472656 154.3125 C 198.433594 154.8125 199.347656 155.386719 200.214844 156.035156 L 251.578125 194.761719 C 253.199219 195.945312 254.539062 197.394531 255.597656 199.101562 C 256.65625 200.808594 257.359375 202.65625 257.703125 204.636719 L 257.703125 204.738281 C 257.765625 205.109375 257.890625 205.460938 258.082031 205.785156 C 258.269531 206.113281 258.507812 206.394531 258.796875 206.636719 C 259.085938 206.875 259.40625 207.058594 259.761719 207.1875 C 260.113281 207.3125 260.480469 207.375 260.855469 207.371094 L 301.398438 207.371094 C 302.726562 201.972656 303.6875 196.511719 304.273438 190.984375 C 304.863281 185.457031 305.074219 179.917969 304.914062 174.359375 C 304.75 168.804688 304.214844 163.285156 303.304688 157.804688 C 302.394531 152.320312 301.117188 146.925781 299.476562 141.613281 L 253.890625 150 C 250.601562 150.605469 247.289062 150.753906 243.957031 150.441406 C 240.625 150.132812 237.398438 149.371094 234.277344 148.167969 Z M 234.277344 148.167969 " fill-opacity="1" fill-rule="nonzero"/><path fill="#231f20" d="M 247.132812 200.78125 L 195.746094 162.011719 C 195.203125 161.597656 194.625 161.230469 194.019531 160.914062 C 193.417969 160.59375 192.789062 160.324219 192.140625 160.109375 C 191.492188 159.890625 190.832031 159.726562 190.15625 159.617188 C 189.484375 159.503906 188.804688 159.449219 188.121094 159.449219 C 187.4375 159.449219 186.757812 159.503906 186.082031 159.617188 C 185.410156 159.726562 184.746094 159.890625 184.097656 160.109375 C 183.449219 160.324219 182.824219 160.59375 182.21875 160.914062 C 181.613281 161.230469 181.039062 161.597656 180.496094 162.011719 L 166.035156 172.878906 C 164.917969 173.714844 163.738281 174.457031 162.5 175.101562 C 161.265625 175.75 159.984375 176.292969 158.65625 176.734375 C 157.332031 177.175781 155.980469 177.507812 154.605469 177.730469 C 153.226562 177.953125 151.839844 178.0625 150.445312 178.0625 C 149.046875 178.0625 147.660156 177.953125 146.28125 177.730469 C 144.90625 177.507812 143.554688 177.175781 142.230469 176.734375 C 140.90625 176.292969 139.625 175.75 138.386719 175.101562 C 137.148438 174.457031 135.96875 173.714844 134.851562 172.878906 C 134.210938 172.398438 133.632812 171.847656 133.125 171.226562 C 132.617188 170.605469 132.1875 169.933594 131.84375 169.207031 C 131.496094 168.484375 131.242188 167.730469 131.078125 166.941406 C 130.917969 166.15625 130.851562 165.363281 130.878906 164.558594 C 130.957031 162.984375 131.371094 161.503906 132.121094 160.121094 C 132.875 158.734375 133.886719 157.582031 135.160156 156.65625 L 160.0625 137.910156 C 160.265625 137.757812 160.433594 137.574219 160.570312 137.359375 C 160.707031 137.144531 160.804688 136.910156 160.859375 136.660156 C 160.914062 136.414062 160.921875 136.160156 160.886719 135.910156 C 160.851562 135.65625 160.773438 135.417969 160.65625 135.191406 C 160.535156 134.96875 160.378906 134.769531 160.191406 134.601562 C 160 134.429688 159.785156 134.300781 159.550781 134.207031 C 159.3125 134.113281 159.066406 134.0625 158.8125 134.058594 C 158.558594 134.050781 158.3125 134.089844 158.070312 134.175781 L 117.125 148.5 C 113.996094 149.597656 110.78125 150.253906 107.476562 150.46875 C 104.171875 150.683594 100.898438 150.453125 97.65625 149.769531 L 66.472656 143.207031 C 64.941406 148.40625 63.757812 153.683594 62.925781 159.039062 C 62.09375 164.394531 61.617188 169.78125 61.496094 175.199219 C 61.375 180.617188 61.613281 186.019531 62.207031 191.40625 C 62.800781 196.796875 63.746094 202.121094 65.046875 207.382812 L 101.351562 207.382812 C 103.839844 207.382812 104.714844 207.773438 105.429688 208.777344 C 107.507812 211.671875 109.75 214.4375 112.15625 217.066406 C 114.5625 219.695312 117.117188 222.175781 119.816406 224.503906 C 122.515625 226.832031 125.339844 228.992188 128.296875 230.984375 C 131.25 232.976562 134.3125 234.789062 137.480469 236.417969 C 140.644531 238.046875 143.898438 239.484375 147.238281 240.730469 C 150.574219 241.972656 153.972656 243.015625 157.433594 243.855469 C 160.894531 244.699219 164.390625 245.332031 167.925781 245.757812 C 171.460938 246.183594 175.011719 246.402344 178.570312 246.40625 L 178.8125 246.40625 C 179.367188 246.414062 179.90625 246.332031 180.433594 246.164062 C 180.960938 245.996094 181.449219 245.746094 181.894531 245.417969 C 182.339844 245.09375 182.722656 244.703125 183.042969 244.25 C 183.363281 243.796875 183.605469 243.304688 183.761719 242.773438 C 183.945312 242.257812 184.046875 241.730469 184.066406 241.183594 C 184.085938 240.636719 184.023438 240.101562 183.878906 239.574219 C 183.734375 239.050781 183.511719 238.558594 183.214844 238.097656 C 182.917969 237.640625 182.5625 237.238281 182.140625 236.890625 L 174.714844 231.296875 C 174.320312 231.007812 173.988281 230.660156 173.726562 230.246094 C 173.460938 229.835938 173.28125 229.386719 173.1875 228.90625 C 173.09375 228.425781 173.089844 227.945312 173.175781 227.464844 C 173.261719 226.980469 173.433594 226.53125 173.691406 226.117188 C 173.832031 225.90625 173.992188 225.710938 174.171875 225.53125 C 174.351562 225.355469 174.550781 225.199219 174.761719 225.058594 C 174.972656 224.921875 175.199219 224.808594 175.433594 224.714844 C 175.671875 224.625 175.914062 224.558594 176.164062 224.515625 C 176.410156 224.472656 176.664062 224.457031 176.914062 224.464844 C 177.167969 224.476562 177.417969 224.507812 177.664062 224.570312 C 177.910156 224.628906 178.148438 224.714844 178.375 224.824219 C 178.605469 224.933594 178.820312 225.0625 179.019531 225.214844 L 186.363281 230.753906 C 186.492188 230.835938 186.609375 230.925781 186.722656 231.03125 L 199.199219 240.464844 C 199.855469 240.957031 200.574219 241.332031 201.351562 241.59375 C 202.128906 241.851562 202.929688 241.980469 203.746094 241.980469 C 204.566406 241.980469 205.367188 241.851562 206.144531 241.59375 C 206.921875 241.332031 207.636719 240.957031 208.292969 240.464844 C 208.527344 240.292969 208.753906 240.105469 208.964844 239.902344 C 209.179688 239.703125 209.378906 239.492188 209.566406 239.269531 C 209.757812 239.046875 209.933594 238.8125 210.09375 238.566406 C 210.253906 238.324219 210.402344 238.070312 210.535156 237.808594 C 210.667969 237.550781 210.785156 237.28125 210.886719 237.007812 C 210.988281 236.734375 211.074219 236.453125 211.144531 236.167969 C 211.210938 235.886719 211.265625 235.597656 211.300781 235.308594 C 211.339844 235.015625 211.359375 234.726562 211.359375 234.433594 C 211.363281 234.140625 211.347656 233.847656 211.320312 233.558594 C 211.289062 233.265625 211.242188 232.976562 211.175781 232.691406 C 211.113281 232.40625 211.03125 232.125 210.933594 231.847656 C 210.839844 231.574219 210.726562 231.304688 210.597656 231.039062 C 210.472656 230.777344 210.328125 230.523438 210.171875 230.273438 C 210.015625 230.027344 209.84375 229.789062 209.660156 229.5625 C 209.476562 229.335938 209.28125 229.121094 209.070312 228.917969 C 208.859375 228.710938 208.640625 228.519531 208.410156 228.34375 L 193.375 217.035156 C 193.019531 216.777344 192.71875 216.46875 192.46875 216.105469 C 192.222656 215.742188 192.039062 215.347656 191.929688 214.921875 C 191.816406 214.496094 191.777344 214.0625 191.816406 213.625 C 191.851562 213.183594 191.960938 212.765625 192.144531 212.363281 C 192.261719 212.117188 192.40625 211.882812 192.578125 211.664062 C 192.746094 211.449219 192.941406 211.25 193.152344 211.078125 C 193.367188 210.902344 193.597656 210.753906 193.84375 210.632812 C 194.089844 210.507812 194.347656 210.414062 194.617188 210.347656 C 194.882812 210.28125 195.15625 210.246094 195.429688 210.242188 C 195.707031 210.238281 195.980469 210.261719 196.25 210.316406 C 196.519531 210.375 196.78125 210.457031 197.03125 210.570312 C 197.28125 210.6875 197.519531 210.824219 197.738281 210.992188 L 212.832031 222.378906 L 212.898438 222.4375 L 221.3125 228.769531 C 221.949219 229.269531 222.648438 229.660156 223.40625 229.945312 C 224.164062 230.226562 224.949219 230.386719 225.757812 230.425781 C 226.566406 230.464844 227.359375 230.382812 228.140625 230.171875 C 228.925781 229.964844 229.65625 229.644531 230.339844 229.207031 C 230.589844 229.039062 230.828125 228.859375 231.054688 228.660156 C 231.285156 228.464844 231.5 228.257812 231.703125 228.035156 C 231.90625 227.8125 232.09375 227.582031 232.269531 227.335938 C 232.445312 227.09375 232.609375 226.839844 232.753906 226.574219 C 232.898438 226.3125 233.027344 226.042969 233.144531 225.761719 C 233.257812 225.484375 233.355469 225.199219 233.433594 224.910156 C 233.515625 224.621094 233.578125 224.324219 233.621094 224.027344 C 233.667969 223.730469 233.695312 223.429688 233.707031 223.128906 C 233.714844 222.828125 233.707031 222.527344 233.683594 222.230469 C 233.65625 221.929688 233.613281 221.632812 233.554688 221.335938 C 233.492188 221.042969 233.414062 220.75 233.320312 220.464844 C 233.226562 220.179688 233.113281 219.902344 232.984375 219.628906 C 232.859375 219.355469 232.714844 219.09375 232.554688 218.835938 C 232.398438 218.582031 232.222656 218.335938 232.035156 218.101562 C 231.847656 217.867188 231.644531 217.644531 231.429688 217.433594 C 231.21875 217.222656 230.992188 217.023438 230.753906 216.839844 L 211.769531 202.523438 C 211.421875 202.269531 211.125 201.960938 210.878906 201.601562 C 210.632812 201.242188 210.457031 200.855469 210.34375 200.433594 C 210.230469 200.015625 210.191406 199.589844 210.226562 199.15625 C 210.257812 198.722656 210.363281 198.308594 210.539062 197.910156 C 210.65625 197.660156 210.800781 197.425781 210.972656 197.210938 C 211.144531 196.992188 211.335938 196.796875 211.546875 196.621094 C 211.761719 196.449219 211.992188 196.300781 212.242188 196.175781 C 212.488281 196.054688 212.746094 195.960938 213.011719 195.894531 C 213.28125 195.828125 213.554688 195.792969 213.828125 195.789062 C 214.105469 195.785156 214.378906 195.8125 214.648438 195.867188 C 214.917969 195.925781 215.175781 196.011719 215.429688 196.125 C 215.679688 196.238281 215.914062 196.382812 216.132812 196.550781 L 235.164062 210.898438 L 235.253906 210.96875 L 238.003906 213.046875 C 238.40625 213.339844 238.828125 213.597656 239.273438 213.816406 C 239.71875 214.03125 240.183594 214.207031 240.664062 214.335938 C 241.140625 214.46875 241.628906 214.554688 242.125 214.59375 C 242.617188 214.632812 243.113281 214.625 243.605469 214.574219 C 244.101562 214.519531 244.585938 214.421875 245.058594 214.277344 C 245.535156 214.132812 245.992188 213.949219 246.433594 213.71875 C 246.875 213.488281 247.289062 213.222656 247.679688 212.914062 C 248.070312 212.605469 248.429688 212.265625 248.757812 211.890625 C 249.394531 211.109375 249.851562 210.234375 250.136719 209.265625 C 250.417969 208.296875 250.503906 207.3125 250.390625 206.308594 C 250.253906 205.203125 249.902344 204.167969 249.335938 203.207031 C 248.769531 202.246094 248.035156 201.4375 247.132812 200.78125 Z M 247.132812 200.78125 " fill-opacity="1" fill-rule="nonzero"/></svg>