<?xml version="1.0" encoding="UTF-8" standalone="no"?>
<!-- Created with Inkscape (http://www.inkscape.org/) -->

<svg
   version="1.1"
   id="svg1"
   width="500"
   height="500"
   viewBox="0 0 500 500"
   xmlns="http://www.w3.org/2000/svg"
   xmlns:svg="http://www.w3.org/2000/svg">
  <defs
     id="defs1" />
  <g
     id="g1">
    <path
       id="path1"
       style="fill:#000000"
       d="M 208.82227 66.082031 C 205.17661 65.607091 186.85288 65.609977 183.15625 66.085938 C 170.27806 67.744078 161.88068 69.634764 152.48828 72.990234 C 150.14097 73.828814 149.41005 74.13146 145.67383 75.8125 C 144.85889 76.17917 144.09363 76.478516 143.97266 76.478516 C 143.51306 76.478516 134.49756 81.151324 130.98828 83.208984 C 125.05004 86.690874 118.23935 91.524381 112.48828 96.337891 C 99.809077 106.95007 87.338424 122.88757 80.558594 137.14453 C 77.842614 142.85581 74.772607 150.50175 73.998047 153.47852 C 73.878787 153.93685 73.648751 154.61185 73.488281 154.97852 C 72.825571 156.49274 71.413346 162.00787 70.628906 166.14453 C 70.368166 167.51953 70.069634 168.86953 69.964844 169.14453 C 69.738084 169.73964 68.869242 175.88943 68.482422 179.64453 C 68.122402 183.13908 68.133977 201.18172 68.498047 204.8125 C 69.262937 212.44059 70.875965 221.20195 72.640625 227.3125 C 73.361735 229.8095 75.40053 236.08542 75.78125 236.97852 C 75.93755 237.34518 76.405976 238.54453 76.822266 239.64453 C 78.434996 243.90606 81.62653 250.80065 83.9375 255.01562 C 85.78739 258.38965 92.753992 268.40255 96.201172 272.64258 C 110.24746 289.9195 128.02707 303.33267 148.32227 311.96289 C 150.33894 312.82045 152.28959 313.65281 152.65625 313.8125 C 155.33106 314.97739 156.56472 315.4423 157.53711 315.65039 C 158.15206 315.782 158.80494 315.99196 158.98828 316.11914 C 159.17161 316.24631 160.59792 316.69245 162.15625 317.10938 C 163.71459 317.5263 165.66328 318.06643 166.48828 318.31055 C 169.07534 319.07607 174.46738 320.0114 183.15625 321.20117 C 187.03181 321.73184 207.86603 321.74217 211.15625 321.21484 C 212.53125 320.99446 215.0806 320.58985 216.82227 320.31641 C 222.16155 319.47814 232.54235 317.06572 234.65625 316.17188 C 235.02292 316.01684 236.59792 315.48949 238.15625 315 C 239.71459 314.5105 241.28959 313.97829 241.65625 313.81641 C 244.00115 312.78114 245.61988 312.14453 245.91211 312.14453 C 246.29373 312.14453 246.92402 311.85813 254.18359 308.37305 C 257.0405 307.00155 261.30124 304.73407 263.65234 303.33398 L 267.92773 300.78711 L 268.9082 301.7168 C 269.4479 302.22764 271.02431 303.99453 272.41211 305.64453 C 276.16144 310.10224 279.53544 314.01787 287.48828 323.14258 C 291.42994 327.66506 295.4056 332.24706 296.32227 333.32422 C 297.23894 334.40138 299.11328 336.58535 300.48828 338.17578 C 303.58288 341.75525 308.41216 347.43045 312.6582 352.47852 C 316.32775 356.8412 320.87458 362.21025 325.48828 367.62891 C 327.22994 369.67446 330.45625 373.49897 332.65625 376.12891 C 334.85625 378.75884 337.70494 382.14184 338.98828 383.64648 C 340.27161 385.15112 342.59792 387.92083 344.15625 389.80078 C 347.10491 393.35801 347.47424 393.80065 350.70703 397.64453 C 351.78633 398.92787 352.90954 400.35417 353.20312 400.8125 C 353.49671 401.27083 355.33472 403.32058 357.28711 405.36914 C 362.22059 410.54563 366.02401 412.9641 371.58008 414.45703 C 376.29921 415.72507 384.13302 415.17373 387.67969 413.32422 C 388.21635 413.04436 388.82037 412.81545 389.02148 412.81445 C 389.63331 412.81102 394.65178 409.31728 396.0293 407.93555 C 400.09025 403.86219 402.75004 399.05998 403.85156 393.8125 C 404.45502 390.93773 404.58757 387.14893 404.15625 385.14453 C 403.93927 384.1362 403.60336 382.5612 403.4082 381.64453 C 403.21303 380.72787 402.93107 379.75352 402.7832 379.47852 C 402.63533 379.20352 402.12018 378.11069 401.63867 377.05078 C 400.05684 373.56878 397.11094 370.14607 388.80273 362.14453 C 379.27117 352.96481 369.7446 343.68363 357.50781 331.64844 C 352.66009 326.88058 348.51604 322.82787 348.29883 322.64453 C 346.4231 321.06138 339.03621 314.01422 328.64453 303.89453 C 321.82008 297.2487 316.11483 291.8125 315.9668 291.8125 C 315.81877 291.8125 313.21447 289.37 310.17773 286.38477 C 307.14098 283.39954 302.89244 279.24447 300.73828 277.15234 C 298.58411 275.06021 296.82227 273.15988 296.82227 272.92969 C 296.82227 272.69949 297.01177 272.3927 297.24414 272.24609 C 297.47652 272.09948 297.89032 271.65589 298.16211 271.26172 C 298.4339 270.86754 299.81744 268.94509 301.23828 266.99023 C 302.65911 265.03537 303.82227 263.36494 303.82227 263.27734 C 303.82227 263.18979 304.10489 262.71158 304.44922 262.21484 C 308.59544 256.23327 313.27357 246.9327 316.39062 238.47852 C 320.03923 228.58262 321.65658 222.01073 323.5625 209.3125 C 324.11028 205.66097 324.109 180.61704 323.56055 176.97852 C 322.57459 170.43753 322.25686 168.78923 320.49219 160.97852 C 320.28509 160.06185 319.9814 159.0112 319.81641 158.64453 C 319.65142 158.27787 319.35084 157.30352 319.14844 156.47852 C 317.4085 149.38634 311.71923 136.42627 306.5293 127.73438 C 298.2919 113.93872 286.52651 100.8727 273.65625 91.228516 C 270.63513 88.964676 269.48645 88.144531 269.33398 88.144531 C 269.23257 88.144531 268.43731 87.652921 267.56836 87.050781 C 263.53039 84.252661 259.23151 81.764996 253.98828 79.191406 C 247.84136 76.174256 243.57017 74.408051 237.48828 72.369141 C 227.74524 69.102851 221.49807 67.732781 208.82227 66.082031 z M 186.98828 97.761719 C 190.9501 97.346139 206.16221 97.591924 208.82227 98.115234 C 209.8306 98.313604 212.00625 98.697297 213.65625 98.966797 C 219.07551 99.851927 226.43984 101.70856 228.98828 102.83203 C 229.35494 102.99368 230.70494 103.5073 231.98828 103.97266 C 234.73474 104.96858 234.54287 104.88449 239.64062 107.29883 C 244.55631 109.62693 251.41722 113.6419 254.97852 116.27539 C 261.96327 121.44043 270.4586 129.9396 274.73438 136.04102 C 276.62193 138.73452 279.15625 142.51678 279.15625 142.64062 C 279.15625 142.71602 279.62034 143.46627 280.1875 144.30664 C 281.3111 145.9715 285.93108 155.13227 286.32617 156.47852 C 286.46068 156.93685 286.679 157.4612 286.8125 157.64453 C 286.946 157.82787 287.46801 159.17787 287.97266 160.64453 C 288.47732 162.1112 289.01331 163.61185 289.16406 163.97852 C 289.31481 164.34518 289.83028 166.29583 290.30859 168.3125 C 290.7869 170.32917 291.31988 172.50287 291.49219 173.14453 C 293.94774 182.2888 294.34091 199.50081 292.3457 210.49219 C 291.27943 216.3661 290.01931 221.59223 289.17383 223.64453 C 289.02277 224.0112 288.3409 225.8875 287.66016 227.8125 C 286.45237 231.22787 286.16035 231.91934 283.69727 237.19336 C 282.28183 240.22414 278.79603 246.24529 276.9707 248.8125 C 270.45872 257.97115 261.27321 267.1423 252.15625 273.58789 C 246.50652 277.5822 232.2609 285.14453 230.38672 285.14453 C 230.14964 285.14453 229.81283 285.27293 229.63867 285.42969 C 229.4645 285.58645 227.97227 286.12824 226.32227 286.63281 C 224.67227 287.13738 222.68011 287.75833 221.89453 288.01367 C 221.10896 288.269 220.25046 288.47852 219.98828 288.47852 C 219.72609 288.47852 218.86955 288.6873 218.08398 288.94141 C 215.55323 289.76005 208.78822 290.80056 203.75977 291.14453 C 194.201 291.79841 185.8936 291.32805 177.48828 289.66016 C 173.07066 288.78356 170.33985 288.14977 169.65625 287.8418 C 169.28959 287.67661 167.31852 287.00964 165.27734 286.35938 C 160.79905 284.93271 159.80544 284.5271 154.7168 282.05469 C 149.09872 279.32504 143.4636 275.94065 138.82227 272.50781 C 138.18077 272.03334 137.50577 271.53941 137.32227 271.41016 C 136.36338 270.73476 130.69145 265.74766 128.71289 263.83984 C 126.36195 261.57296 120.73462 255.32291 118.93359 252.97852 C 117.08991 250.57862 113.82227 245.79358 113.82227 245.49414 C 113.82227 245.33305 113.69752 245.15094 113.54492 245.08984 C 112.9172 244.83846 107.98205 235.48417 106.2793 231.31836 C 105.82823 230.21479 105.32372 229.0112 105.1582 228.64453 C 104.99267 228.27787 104.4563 226.70287 103.9668 225.14453 C 103.47731 223.5862 102.95382 222.0112 102.80273 221.64453 C 102.52486 220.97015 102.30561 220.063 101.11523 214.64453 C 99.32616 206.50093 98.564481 196.77629 99.119141 189.17969 C 99.817211 179.61911 101.13385 172.58822 103.67383 164.88086 C 106.74706 155.55539 107.79507 153.19512 112.42969 145.14453 C 116.22808 138.54651 117.3926 136.89932 122.20312 131.32031 C 127.39389 125.30032 133.68333 119.39039 138.36133 116.13672 C 142.66365 113.14436 144.27141 112.06764 145.36523 111.44727 C 146.07443 111.04504 147.4056 110.27994 148.32227 109.74805 C 150.01994 108.76298 155.17614 106.21397 158.48828 104.72266 C 159.49661 104.26865 162.19661 103.28003 164.48828 102.52539 C 173.10576 99.687697 177.51005 98.755959 186.98828 97.761719 z M 196.9375 126.20703 C 196.78948 126.20935 196.63227 126.23292 196.44922 126.26953 C 195.86449 126.38647 195.17099 126.66081 194.9082 126.87891 C 194.45336 127.25639 190.44897 132.36975 189.57617 133.6875 C 189.34886 134.03071 188.1019 135.86552 186.80664 137.76367 C 185.51138 139.66183 183.06262 143.26183 181.36328 145.76367 C 179.66395 148.26552 177.09481 152.0362 175.65625 154.14453 C 174.2177 156.25287 171.61708 160.07787 169.87695 162.64453 C 168.13683 165.2112 165.63695 168.8875 164.32031 170.8125 C 163.00366 172.7375 160.65275 176.18685 159.0957 178.47852 C 157.53864 180.77018 155.13898 184.29583 153.76367 186.3125 C 149.78549 192.14584 145.82278 198.00732 139.56641 207.3125 C 136.36152 212.07917 133.54679 216.20352 133.31055 216.47852 C 132.24518 217.71867 130.48828 221.82608 130.48828 223.07812 C 130.48828 225.18265 130.80172 225.28906 137.62109 225.49414 C 140.93943 225.59393 166.83125 225.6955 195.15625 225.7207 C 243.46847 225.7637 260.15064 225.57656 261.59766 224.97461 C 263.22856 224.29617 262.77866 221.41986 260.39844 217.3125 C 259.65474 216.02917 258.95695 214.9042 258.84961 214.8125 C 258.66857 214.65789 249.9403 201.7421 248.82227 199.97461 C 248.31803 199.17746 240.86295 188.1327 235.21289 179.8125 C 233.53218 177.3375 232.00633 175.0875 231.82227 174.8125 C 231.63821 174.5375 230.11181 172.2875 228.43164 169.8125 C 226.75147 167.3375 223.20207 162.0862 220.54297 158.14453 C 217.88386 154.20287 214.13399 148.65417 212.20898 145.8125 C 210.28398 142.97083 207.91863 139.44518 206.95312 137.97852 C 205.98761 136.51185 205.0748 135.16185 204.92578 134.97852 C 204.77677 134.79518 204.20625 133.97371 203.65625 133.15234 C 202.11252 130.84694 201.80251 130.46888 199.58398 128.1875 C 198.03819 126.5979 197.5789 126.19697 196.9375 126.20703 z " />
  </g>
</svg>
